<?xml version="1.0" standalone="no"?>
<!DOCTYPE svg PUBLIC "-//W3C//DTD SVG 20010904//EN"
 "http://www.w3.org/TR/2001/REC-SVG-20010904/DTD/svg10.dtd">
<svg version="1.0" xmlns="http://www.w3.org/2000/svg"
 width="661.000000pt" height="438.000000pt" viewBox="0 0 661.000000 438.000000"
 preserveAspectRatio="xMidYMid meet">

<g transform="translate(0.000000,438.000000) scale(0.100000,-0.100000)"
fill="#000000" stroke="none">
<path d="M3014 3484 c-255 -43 -498 -199 -644 -415 -52 -76 -122 -220 -115
-237 2 -7 0 -10 -5 -7 -9 6 -14 -12 -12 -45 0 -8 -6 -42 -13 -75 -13 -56 -31
-243 -21 -220 3 6 8 46 12 90 5 61 9 74 15 55 6 -17 7 -11 3 20 -4 34 -3 41 6
30 8 -11 9 -6 5 25 -3 26 -2 33 3 20 8 -17 9 -15 15 13 4 17 4 39 0 49 -5 12
-3 14 7 8 10 -6 12 -3 7 14 -3 13 -3 20 0 17 4 -3 24 30 45 75 51 110 111 191
208 282 102 96 203 159 324 202 184 66 323 77 506 38 336 -70 616 -332 710
-663 56 -197 29 -515 -60 -690 -32 -65 -130 -210 -139 -207 -4 1 -30 -22 -58
-51 -65 -66 -38 -52 46 24 35 32 59 50 54 39 -24 -45 -100 -119 -191 -186
-117 -87 -127 -96 -82 -74 100 50 214 145 292 244 111 139 203 365 215 529 3
45 8 80 11 78 12 -12 0 -130 -23 -222 -27 -115 -54 -180 -117 -286 -23 -40
-43 -80 -43 -88 -1 -8 -6 -14 -12 -13 -15 3 -55 -52 -45 -62 4 -5 1 -5 -7 0
-10 6 -12 4 -6 -5 6 -9 4 -11 -5 -5 -9 6 -11 4 -5 -5 5 -9 4 -11 -4 -6 -7 5
-10 2 -9 -5 2 -7 -4 -13 -12 -14 -8 0 -15 -6 -15 -14 0 -8 -8 -15 -18 -17 -21
-3 -50 -25 -42 -32 3 -3 0 -11 -6 -19 -25 -29 6 -10 62 38 70 61 163 175 154
189 -4 6 -1 9 7 8 24 -5 126 216 149 322 53 251 27 506 -73 705 -200 397 -640
622 -1074 549z m1156 -951 c0 -25 -3 -43 -7 -40 -7 8 -12 69 -6 80 9 16 13 5
13 -40z m-300 -677 c0 -2 -8 -10 -17 -17 -16 -13 -17 -12 -4 4 13 16 21 21 21
13z m80 -30 c0 -2 -8 -10 -17 -17 -16 -13 -17 -12 -4 4 13 16 21 21 21 13z"/>
<path d="M3612 3130 c-71 -48 -133 -113 -278 -293 -92 -115 -254 -348 -349
-503 l-30 -49 -3 40 c-2 22 4 91 12 155 48 349 48 511 0 551 -53 44 -190 -148
-268 -373 -75 -218 -87 -568 -19 -568 11 0 10 5 -3 25 -13 20 -17 48 -16 123
2 245 95 553 211 700 75 95 111 89 111 -17 0 -64 -24 -335 -41 -461 -6 -47 -9
-110 -7 -140 5 -95 27 -80 153 111 236 357 402 562 529 656 101 75 116 56 98
-122 -28 -265 -98 -620 -197 -1002 -25 -95 -45 -177 -45 -183 0 -19 18 -10 23
13 2 12 30 110 62 217 72 248 117 445 154 685 48 305 52 423 15 460 -24 23
-47 18 -112 -25z"/>
<path d="M2221 2554 c0 -11 3 -14 6 -6 3 7 2 16 -1 19 -3 4 -6 -2 -5 -13z"/>
<path d="M2347 1929 c10 -17 24 -36 32 -42 8 -7 2 7 -14 31 -32 49 -45 57 -18
11z"/>
<path d="M2405 1850 c10 -11 20 -20 23 -20 3 0 -3 9 -13 20 -10 11 -20 20 -23
20 -3 0 3 -9 13 -20z"/>
<path d="M2497 1752 c66 -63 170 -142 189 -142 4 0 -25 22 -63 49 -39 28 -99
75 -134 107 -60 52 -59 52 8 -14z"/>
<path d="M3759 1669 c-13 -11 -18 -17 -10 -13 9 5 12 3 7 -5 -4 -6 -11 -9 -16
-6 -5 3 -35 -10 -67 -29 -84 -50 -210 -98 -235 -90 -15 4 -18 3 -13 -6 6 -10
1 -11 -19 -6 -20 5 -26 4 -20 -5 5 -8 -1 -10 -20 -7 -21 4 -26 2 -21 -9 4 -13
-2 -14 -32 -9 -28 5 -34 4 -23 -3 11 -8 3 -11 -35 -13 -48 -1 -49 -2 -9 -5 56
-5 213 28 304 64 85 34 225 114 225 128 0 6 4 16 8 23 12 18 2 15 -24 -9z"/>
<path d="M2876 1521 c9 -9 83 -27 74 -18 -3 3 -23 10 -44 16 -22 5 -35 6 -30
2z"/>
<path d="M3208 1493 c12 -2 30 -2 40 0 9 3 -1 5 -23 4 -22 0 -30 -2 -17 -4z"/>
<path d="M1556 1153 c-4 -59 -9 -127 -12 -150 -6 -39 -4 -43 14 -43 22 0 22
-2 39 160 l8 75 44 -117 c32 -85 49 -118 60 -118 12 0 28 30 55 103 20 56 41
109 46 116 5 9 11 -21 15 -75 9 -126 13 -144 35 -144 16 0 18 6 14 53 -3 28
-8 95 -12 147 l-7 95 -30 0 c-28 0 -31 -4 -70 -107 -22 -59 -42 -108 -45 -108
-3 0 -24 48 -46 108 -39 101 -43 107 -71 110 l-30 3 -7 -108z"/>
<path d="M2010 1240 c0 -17 8 -19 80 -22 l81 -3 -80 -110 c-44 -60 -81 -118
-81 -127 0 -16 12 -18 110 -18 90 0 110 3 110 15 0 11 -18 15 -85 17 l-86 3
80 110 c44 61 81 120 81 133 0 21 -3 22 -105 22 -98 0 -105 -1 -105 -20z"/>
<path d="M2560 1110 c0 -143 1 -150 20 -150 18 0 20 7 20 66 0 62 1 65 22 62
15 -2 33 -22 58 -65 27 -48 40 -63 58 -63 12 0 22 2 22 5 0 2 -16 29 -35 59
-36 57 -42 76 -25 76 6 0 19 9 30 20 30 30 26 76 -9 111 -27 26 -36 29 -95 29
l-66 0 0 -150z m134 94 c37 -36 2 -84 -61 -84 -33 0 -33 0 -33 50 l0 50 39 0
c23 0 46 -7 55 -16z"/>
<path d="M2900 1110 l0 -150 85 0 c69 0 85 3 85 15 0 12 -13 15 -60 15 l-60 0
0 50 0 50 50 0 c38 0 50 4 50 15 0 11 -12 15 -50 15 l-50 0 0 50 0 50 60 0
c53 0 60 2 60 20 0 18 -7 20 -85 20 l-85 0 0 -150z"/>
<path d="M3183 1247 c3 -7 22 -75 44 -150 37 -133 39 -137 65 -137 26 0 29 6
62 108 24 75 36 102 41 89 4 -10 19 -57 34 -105 26 -83 28 -87 56 -87 29 0 30
1 67 130 43 152 45 165 19 165 -15 0 -24 -21 -51 -117 -17 -65 -34 -120 -35
-122 -2 -2 -21 51 -41 118 -48 155 -61 159 -99 34 -45 -151 -48 -159 -53 -143
-3 8 -19 62 -36 120 -28 92 -34 105 -55 108 -17 3 -22 0 -18 -11z"/>
<path d="M3807 1252 c-6 -8 -107 -282 -107 -288 0 -2 9 -4 20 -4 13 0 25 12
34 35 15 35 15 35 80 35 l65 0 12 -35 c10 -26 19 -35 36 -35 l22 0 -25 68
c-90 241 -85 232 -110 232 -12 0 -25 -3 -27 -8z m59 -129 l24 -63 -56 0 c-63
0 -61 -8 -21 100 12 32 22 49 25 40 3 -8 16 -43 28 -77z"/>
<path d="M4100 1111 c0 -144 1 -151 20 -151 18 0 20 7 20 65 0 62 1 65 25 65
19 0 31 -13 60 -65 30 -52 41 -65 61 -65 28 0 28 -1 -24 80 l-29 45 29 25 c24
20 30 33 30 64 0 61 -26 80 -117 84 l-75 4 0 -151z m145 85 c22 -34 6 -63 -40
-72 -54 -10 -65 -1 -65 51 l0 45 45 0 c36 0 48 -5 60 -24z"/>
<path d="M4450 1110 l0 -150 79 0 c65 0 83 4 106 22 55 43 71 137 35 207 -24
48 -76 71 -160 71 l-60 0 0 -150z m150 97 c31 -16 53 -78 45 -128 -9 -52 -44
-81 -105 -87 l-50 -5 0 117 0 116 43 0 c23 0 53 -6 67 -13z"/>
<path d="M4865 1248 c-30 -17 -44 -40 -45 -70 0 -38 28 -63 94 -84 31 -10 64
-26 72 -36 15 -16 15 -19 0 -43 -23 -35 -86 -36 -114 0 -20 26 -46 33 -57 15
-3 -5 8 -24 24 -42 27 -31 34 -33 91 -33 55 0 64 3 86 28 49 58 20 113 -76
142 -66 20 -87 42 -71 74 20 36 103 34 117 -4 7 -17 30 -20 38 -6 29 46 -99
93 -159 59z"/>
</g>
</svg>
